<svg xmlns="http://www.w3.org/2000/svg" xmlns:xlink="http://www.w3.org/1999/xlink" width="209" zoomAndPan="magnify" viewBox="0 0 156.75 159.000002" height="212" preserveAspectRatio="xMidYMid meet" version="1.0"><defs><g/><clipPath id="4058f59ea4"><path d="M 75.492188 74.972656 L 76.238281 74.972656 L 76.238281 82.4375 L 75.492188 82.4375 Z M 75.492188 74.972656 " clip-rule="nonzero"/></clipPath></defs><g clip-path="url(#4058f59ea4)"><path fill="#6ecaff" d="M 75.492188 74.972656 L 76.238281 74.972656 L 76.238281 82.4375 L 75.492188 82.4375 Z M 75.492188 74.972656 " fill-opacity="1" fill-rule="nonzero"/></g><g fill="#ffffff" fill-opacity="1"><g transform="translate(77.266376, 78.610488)"><g><path d="M 0.171875 -2.96875 L 0.90625 -2.96875 C 1.132812 -2.96875 1.304688 -2.90625 1.421875 -2.78125 C 1.535156 -2.65625 1.59375 -2.472656 1.59375 -2.234375 L 1.59375 -0.734375 C 1.59375 -0.492188 1.535156 -0.3125 1.421875 -0.1875 C 1.304688 -0.0625 1.132812 0 0.90625 0 L 0.171875 0 Z M 0.640625 -2.546875 L 0.640625 -0.421875 L 0.890625 -0.421875 C 0.960938 -0.421875 1.019531 -0.441406 1.0625 -0.484375 C 1.113281 -0.523438 1.140625 -0.601562 1.140625 -0.71875 L 1.140625 -2.25 C 1.140625 -2.351562 1.113281 -2.425781 1.0625 -2.46875 C 1.019531 -2.519531 0.960938 -2.546875 0.890625 -2.546875 Z M 0.640625 -2.546875 "/></g></g></g><g fill="#ffffff" fill-opacity="1"><g transform="translate(77.266376, 82.135185)"><g><path d="M 0.171875 -2.96875 L 0.90625 -2.96875 C 1.132812 -2.96875 1.304688 -2.90625 1.421875 -2.78125 C 1.535156 -2.65625 1.59375 -2.472656 1.59375 -2.234375 L 1.59375 -0.734375 C 1.59375 -0.492188 1.535156 -0.3125 1.421875 -0.1875 C 1.304688 -0.0625 1.132812 0 0.90625 0 L 0.171875 0 Z M 0.640625 -2.546875 L 0.640625 -0.421875 L 0.890625 -0.421875 C 0.960938 -0.421875 1.019531 -0.441406 1.0625 -0.484375 C 1.113281 -0.523438 1.140625 -0.601562 1.140625 -0.71875 L 1.140625 -2.25 C 1.140625 -2.351562 1.113281 -2.425781 1.0625 -2.46875 C 1.019531 -2.519531 0.960938 -2.546875 0.890625 -2.546875 Z M 0.640625 -2.546875 "/></g></g></g></svg>